<?xml version="1.0" encoding="UTF-8" standalone="no"?>
<svg
   xmlns:dc="http://purl.org/dc/elements/1.1/"
   xmlns:cc="http://creativecommons.org/ns#"
   xmlns:rdf="http://www.w3.org/1999/02/22-rdf-syntax-ns#"
   xmlns:svg="http://www.w3.org/2000/svg"
   xmlns="http://www.w3.org/2000/svg"
   xmlns:sodipodi="http://sodipodi.sourceforge.net/DTD/sodipodi-0.dtd"
   xmlns:inkscape="http://www.inkscape.org/namespaces/inkscape"
   width="12.7mm"
   height="12.7mm"
   viewBox="0 0 12.7 12.7"
   version="1.1"
   id="svg8"
   sodipodi:docname="plugin2.svg"
   inkscape:version="1.0.2 (e86c870879, 2021-01-15)">
  <sodipodi:namedview
     pagecolor="#ffffff"
     bordercolor="#666666"
     borderopacity="1"
     objecttolerance="10"
     gridtolerance="10"
     guidetolerance="10"
     inkscape:pageopacity="0"
     inkscape:pageshadow="2"
     inkscape:window-width="1570"
     inkscape:window-height="1080"
     id="namedview12"
     showgrid="false"
     inkscape:zoom="10.97764"
     inkscape:cx="-26.47294"
     inkscape:cy="17.32219"
     inkscape:window-x="1360"
     inkscape:window-y="0"
     inkscape:window-maximized="0"
     inkscape:current-layer="g1036"
     inkscape:document-rotation="0"
     inkscape:snap-page="true" />
  <defs
     id="defs2" />
  <metadata
     id="metadata5">
    <rdf:RDF>
      <cc:Work
         rdf:about="">
        <dc:format>image/svg+xml</dc:format>
        <dc:type
           rdf:resource="http://purl.org/dc/dcmitype/StillImage" />
        <dc:title />
      </cc:Work>
    </rdf:RDF>
  </metadata>
  <g
     id="layer1"
     style="opacity:1;stroke-width:0.958334"
     transform="matrix(1.0434782,0,0,1.0434782,-123.98855,-90.492622)">
    <g
       id="g979"
       style="stroke-width:0.958334">
      <g
         id="g1036"
         transform="translate(-3.6036682e-6,0.26457967)"
         style="stroke-width:0.958334">
        <rect
           style="fill:#000000;stroke-width:0.0507118;paint-order:stroke markers fill"
           id="rect836"
           width="12.170834"
           height="12.170834"
           x="118.82237"
           y="86.45752"
           rx="1.7749133" />
        <path
           d="m 121.81615,87.836648 c -0.54443,-0.01116 -0.88052,0.251761 -0.88028,0.718999 0,1.106835 1.56814,1.90325 2.78349,2.272825 0.0459,0.340295 0.0613,0.592579 0.0613,0.639092 0,1.889294 -2.03679,0.224545 -2.27082,-0.0095 l -0.20304,0.203027 c 0.37884,0.378834 1.66456,1.371673 2.48646,1.371673 0.43503,0 0.90438,-0.106712 0.90438,-1.24052 0,-0.234894 -0.0285,-0.490989 -0.0826,-0.756042 0.1122,0.01567 0.20979,0.02383 0.28799,0.02383 0.0782,0 0.17574,-0.0081 0.28799,-0.02383 -0.0542,0.265053 -0.0826,0.521148 -0.0826,0.756042 0,1.133804 0.46935,1.24052 0.90437,1.24052 0.82194,0 2.10762,-0.992839 2.48646,-1.371673 l -0.20304,-0.203027 c -0.23403,0.234053 -2.27083,1.898802 -2.27083,0.0095 0,-0.04653 0.0152,-0.298797 0.0613,-0.639092 1.21535,-0.369566 2.78348,-1.165969 2.78348,-2.272825 2.2e-4,-0.467238 -0.33583,-0.730177 -0.88027,-0.718999 -1.35929,0 -2.40697,1.591648 -2.75594,3.00973 -0.11493,0.0172 -0.22618,0.0268 -0.33085,0.0268 -0.10472,0 -0.21579,-0.0096 -0.33085,-0.0268 -0.34897,-1.418082 -1.39665,-3.00973 -2.75593,-3.00973 z m 0.44655,0.455826 c 0.88966,0 1.2684,1.359145 1.42158,2.30123 -0.99102,-0.397015 -1.96062,-1.135318 -1.96062,-1.667695 0,-0.232092 0.1265,-0.633535 0.53904,-0.633535 z m 5.28046,0 c 0.41251,0 0.53907,0.401443 0.53907,0.633535 0,0.532377 -0.96962,1.27068 -1.96063,1.667695 0.15316,-0.942085 0.53192,-2.30123 1.42156,-2.30123 z"
           style="fill:#ececec;fill-opacity:1;stroke:#ececec;stroke-width:0.143749;stroke-linecap:butt;stroke-linejoin:miter;stroke-miterlimit:4;stroke-dasharray:none;stroke-opacity:1"
           id="path920" />
        <text
           xml:space="preserve"
           style="font-style:normal;font-variant:normal;font-weight:bold;font-stretch:normal;font-size:4.95177px;line-height:1;font-family:'Helvetica LT Std';-inkscape-font-specification:'Helvetica LT Std Bold';text-align:center;text-anchor:middle;fill:#ececec;fill-opacity:1;stroke:none;stroke-width:0.0507116;paint-order:stroke markers fill"
           x="124.8438"
           y="97.25174"
           id="text1030"><tspan
             id="tspan1028"
             x="124.8438"
             y="97.25174"
             style="font-style:normal;font-variant:normal;font-weight:bold;font-stretch:normal;font-size:4.95177px;font-family:'Helvetica LT Std';-inkscape-font-specification:'Helvetica LT Std Bold';font-variant-ligatures:normal;font-variant-caps:normal;font-variant-numeric:normal;font-variant-east-asian:normal;fill:#ececec;fill-opacity:1;stroke:none;stroke-width:0.0507116">ibid</tspan></text>
      </g>
    </g>
  </g>
</svg>
